<svg id="Слой_1" xmlns="http://www.w3.org/2000/svg" viewBox="0 0 21.7 22.1"><style>.st0{fill:#fff}</style><path class="st0" d="M21.5 19.7h-.8c-1.1 0-1.6-.3-1.7-.5-.2-.2-.3-.4-.3-.8 0-.2 0-.4.1-.6 1.7-1.9 2.7-4.4 2.7-7.1C21.5 4.8 16.7 0 10.8 0 4.8 0 0 4.8 0 10.8c0 5.9 4.8 10.8 10.8 10.8 2.2 0 4.2-.6 5.9-1.7.1.4.4.8.7 1.1.7.8 1.9 1.1 3.4 1.1h1l-.3-2.4zM4.9 13.8c-1.5 0-2.7-1.4-2.7-3 0-1.7 1.2-3 2.7-3s2.7 1.4 2.7 3c-.1 1.6-1.3 3-2.7 3zm5.9 5.5c-1.7 0-3-1.2-3-2.7s1.4-2.7 3-2.7c1.7 0 3 1.2 3 2.7s-1.4 2.7-3 2.7zm-1.5-8.5c0-.8.7-1.5 1.5-1.5s1.5.7 1.5 1.5-.7 1.5-1.5 1.5c-.8-.1-1.5-.7-1.5-1.5zm1.5-3.3c-1.7 0-3-1.2-3-2.7s1.4-2.7 3-2.7c1.7 0 3 1.2 3 2.7s-1.4 2.7-3 2.7zm3.2 3.3c0-1.7 1.2-3 2.7-3s2.7 1.4 2.7 3c0 1.7-1.2 3-2.7 3s-2.7-1.4-2.7-3z"/></svg>