<svg id="Слой_1" xmlns="http://www.w3.org/2000/svg" viewBox="0 0 16.3 16.3"><style>.st0{fill:#fff}</style><path class="st0" d="M13.3 3.9c0 .5-.4.9-.9.9s-.9-.4-.9-.9.4-.9.9-.9.9.4.9.9zm3 4.3l-.1 3.4c0 2.6-2.1 4.6-4.7 4.7l-3.4.1-3.4-.1c-2.6 0-4.6-2.1-4.7-4.7V8.2l.1-3.4C.1 2.2 2.2.2 4.8.1L8.2 0l3.4.1c2.6 0 4.6 2.1 4.7 4.7v3.4zm-1.5 0l-.1-3.4c0-1.7-1.4-3.2-3.2-3.2l-3.3-.1-3.4.1C3 1.6 1.6 3 1.6 4.8l-.1 3.4.1 3.4c0 1.7 1.4 3.2 3.2 3.2l3.4.1 3.4-.1c1.7 0 3.2-1.4 3.2-3.2V8.2zm-2.4 0c0 2.3-1.9 4.2-4.2 4.2S4 10.5 4 8.2C4 5.9 5.9 4 8.2 4c2.3 0 4.2 1.9 4.2 4.2zm-1.6 0c0-1.5-1.2-2.7-2.7-2.7S5.5 6.7 5.5 8.2s1.2 2.7 2.7 2.7c1.4-.1 2.6-1.3 2.6-2.7z"/></svg>