<svg id="Слой_1" xmlns="http://www.w3.org/2000/svg" viewBox="0 0 27.9 22.1"><style>.st0{fill:#fff}</style><path class="st0" d="M24.5 3.6l-1.7-2.4C22.2.4 21.5 0 20.5 0H18c-.9 0-1.6.4-2.2 1.1l-1.7 2.4H4.2C1.9 3.5 0 5.4 0 7.7v10.1C0 20.1 1.9 22 4.2 22h19.4c2.3 0 4.2-1.9 4.2-4.2V7.7c.1-2-1.4-3.7-3.3-4.1zm-7-1.2l.2-.2c.1-.1.3-.1.3-.1h2.6s.1 0 .3.1c0 .1.1.2.1.2l.8 1.1h-5.1l.8-1.1zm-4.4 16.3c-3.3 0-6-2.7-6-6s2.7-6 6-6 6 2.7 6 6-2.7 6-6 6zm-10.6-.8V7.7c0-.9.8-1.7 1.7-1.7H7c-1.8 1.6-2.9 4-2.9 6.6 0 2.8 1.3 5.3 3.2 6.9H4.2c-.9.1-1.7-.7-1.7-1.6zm22.9 0c0 .9-.8 1.7-1.7 1.7h-4.8c2-1.6 3.2-4.1 3.2-6.9 0-2.6-1.1-5-2.9-6.6h4.5c.9 0 1.7.8 1.7 1.7v10.1z"/></svg>